<svg xmlns="http://www.w3.org/2000/svg" viewBox="0 0 32.37 42.64"><defs><style>.cls-1{fill:#1a1e31;}.cls-2{fill:none;stroke:#e14582;stroke-miterlimit:10;stroke-width:0.25px;}.cls-3{fill:#fff;}</style></defs><g id="Layer_2" data-name="Layer 2"><g id="Layer_1-2" data-name="Layer 1"><polygon class="cls-1" points="0 0 0 33.19 16.19 42.64 32.37 33.19 32.37 0 0 0"/><polygon class="cls-2" points="1.86 1.94 1.86 31.9 16.19 40.05 30.51 31.9 30.51 1.94 1.86 1.94"/><path class="cls-3" d="M13.13,12.89V26H9.44V15.75H7V12.89Z"/><path class="cls-3" d="M24.05,18.77a3.72,3.72,0,0,1,1.31,3A4.15,4.15,0,0,1,24.74,24a4.28,4.28,0,0,1-1.91,1.62,7.24,7.24,0,0,1-3.16.61,11.12,11.12,0,0,1-2.74-.34,7.78,7.78,0,0,1-2.32-.95l1.33-2.78a6,6,0,0,0,1.72.8,6.53,6.53,0,0,0,1.9.28,2.83,2.83,0,0,0,1.52-.36,1.14,1.14,0,0,0,.57-1,1.1,1.1,0,0,0-.56-1,4.22,4.22,0,0,0-2-.33H15.56l.66-7.64h8.32v2.86H19.28l-.17,1.9H20A6.15,6.15,0,0,1,24.05,18.77Z"/><path class="cls-3" d="M9.84,6.86h.49v.8a1.21,1.21,0,0,1-.38.18,1.68,1.68,0,0,1-.43.07A1.27,1.27,0,0,1,9,7.78a1,1,0,0,1-.37-.36.89.89,0,0,1-.14-.51.9.9,0,0,1,.14-.52A.94.94,0,0,1,9,6a1.32,1.32,0,0,1,1,0,.86.86,0,0,1,.36.26L10,6.57a.6.6,0,0,0-.46-.21.56.56,0,0,0-.48.83.52.52,0,0,0,.19.2.61.61,0,0,0,.28.07.69.69,0,0,0,.29-.07Z"/><path class="cls-3" d="M12,7.49h-.81L11,7.87h-.56l.85-1.93h.54l.85,1.93h-.57Zm-.16-.4-.25-.61-.24.61Z"/><path class="cls-3" d="M13.67,7.36h-.3v.51h-.54V5.94h.88a1.06,1.06,0,0,1,.45.09.64.64,0,0,1,.4.63.69.69,0,0,1-.09.36.73.73,0,0,1-.28.24l.41.61H14Zm.26-.91a.37.37,0,0,0-.25-.08h-.31v.57h.31a.37.37,0,0,0,.25-.08.22.22,0,0,0,.08-.2A.25.25,0,0,0,13.93,6.45Z"/><path class="cls-3" d="M16.15,7.49h-.81l-.15.38h-.56l.85-1.93H16l.85,1.93H16.3ZM16,7.09l-.25-.61-.24.61Z"/><path class="cls-3" d="M18.85,5.94V7.87H18.4l-.85-1v1H17V5.94h.45l.85,1v-1Z"/><path class="cls-3" d="M19.65,6.38h-.6V5.94h1.73v.44h-.59V7.87h-.54Z"/><path class="cls-3" d="M21,5.94h.54V7.87H21Z"/><path class="cls-3" d="M23.2,7.49h-.81l-.15.38h-.56l.85-1.93h.53l.86,1.93h-.57ZM23,7.09l-.25-.61-.24.61Z"/><path class="cls-3" d="M12.26,29.62h1.06a1.51,1.51,0,0,1,.65.14,1,1,0,0,1,.44.39,1.07,1.07,0,0,1,.16.59,1,1,0,0,1-.16.59,1,1,0,0,1-.44.39,1.38,1.38,0,0,1-.65.14H12.26Zm1,1.74a.66.66,0,0,0,.47-.17.68.68,0,0,0,0-.9.65.65,0,0,0-.47-.16h-.4v1.23Z"/><path class="cls-3" d="M14.9,29.62h.64v2.24H14.9Z"/><path class="cls-3" d="M17.49,31.43h-.95l-.18.43h-.64l1-2.24h.62l1,2.24h-.66ZM17.3,31,17,30.24l-.28.72Z"/><path class="cls-3" d="M18.76,31.84a1.65,1.65,0,0,1-.42-.18l.21-.47a1.25,1.25,0,0,0,.35.16,1.32,1.32,0,0,0,.39.06c.24,0,.37-.06.37-.18a.16.16,0,0,0-.11-.14l-.33-.1a2,2,0,0,1-.43-.12.7.7,0,0,1-.29-.19.58.58,0,0,1-.12-.38.7.7,0,0,1,.11-.37.93.93,0,0,1,.34-.26,1.45,1.45,0,0,1,.54-.09,1.61,1.61,0,0,1,.44.05,1.42,1.42,0,0,1,.38.14l-.2.47a1.35,1.35,0,0,0-.62-.17.45.45,0,0,0-.27.06.15.15,0,0,0-.09.14.15.15,0,0,0,.1.14,1.8,1.8,0,0,0,.33.09,2.42,2.42,0,0,1,.42.12.73.73,0,0,1,.3.19.55.55,0,0,1,.12.37.67.67,0,0,1-.11.37.83.83,0,0,1-.34.26,1.44,1.44,0,0,1-.54.1A2.33,2.33,0,0,1,18.76,31.84Z"/></g></g></svg>